<svg xmlns="http://www.w3.org/2000/svg" id="icontest" xmlns:xlink="http://www.w3.org/1999/xlink" width="44.157" height="49.657" viewBox="0 0 44.157 49.657" class="svg-container__icon">
    <path data-name="{ }" d="M135.155,176.954q-2.622-2.756-.162-7.757l2.325-4.482q2.49-4.8-.286-8.707,4.782,0.039,7.261-4.739l2.3-4.439a9.763,9.763,0,0,1,2.978-3.62,5.035,5.035,0,0,1,3.5-.8l0.582-4.018a12.1,12.1,0,0,0-7.518.527,11.157,11.157,0,0,0-5.181,5.334l-2.325,4.482q-2.268,4.164-5.946,2.255l-2.27,4.376q3.764,1.953,1.449,6.413l-2.182,4.207q-3.991,7.7,2.511,13.778Zm11.626,10.377q8.528,1.767,12.535-5.544L161.7,177.2q2.292-4.419,6.056-2.467l2.27-4.376q-3.679-1.908-1.581-6.159l2.358-4.545a11.174,11.174,0,0,0,1.339-7.287,12,12,0,0,0-3.894-6.407l-2.95,2.79q2.589,2.871.118,7.841l-2.292,4.419q-2.533,4.883.37,8.75-4.833-.145-7.312,4.632l-2.325,4.481q-2.673,4.945-6.478,4.42Z"  transform="translate(-128.156 -138.031)" fill="#f91284"/>
</svg>