<svg xmlns="http://www.w3.org/2000/svg" xmlns:xlink="http://www.w3.org/1999/xlink" width="34.75" height="41.344" viewBox="0 0 34.75 41.344" class="svg-container__icon">
    <path xmlns="http://www.w3.org/2000/svg" d="M257.367,413.169l4.907,1.4,5.064-10.445,6.811,1.941,1.314-4.612-6.006-1.712,3.511-7.234,6.7,1.911L281,389.751l-5.872-1.674,5.136-10.6-4.907-1.4-5.137,10.6-5.2-1.483,5.136-10.6-4.88-1.391-5.137,10.6-7.052-2.01-1.33,4.666,6.221,1.773-3.511,7.233-6.891-1.964-1.315,4.613,6.088,1.735L247.284,410.3l4.907,1.4,5.064-10.444,5.175,1.475Zm5.491-23.543,5.2,1.482-3.511,7.234-5.175-1.475Z" transform="translate(-246.25 -373.219)" fill="#f91284"/>
</svg>