<svg xmlns="http://www.w3.org/2000/svg" xmlns:xlink="http://www.w3.org/1999/xlink" width="82.659" height="37.375" viewBox="0 0 82.659 37.375" class="svg-container__icon">
    <path xmlns="http://www.w3.org/2000/svg" data-name="&lt;div&gt;" d="M969.905,549.329l1.769-4.823-17.137.85-1.49,4.065,12.526,11.725,1.769-4.823-8.55-7.062Zm0.942,13.877a6.734,6.734,0,0,0,4.329,4.528,6.237,6.237,0,0,0,5.641-.57l-0.485,2.069,4.5,1.649,9.7-26.46-5-1.831-3.485,9.509a6.083,6.083,0,0,0-3.751-3.681,6.757,6.757,0,0,0-6.3.623,11.964,11.964,0,0,0-4.5,6.225Q969.806,559.884,970.847,563.206Zm11.239-10.272a3.5,3.5,0,0,1,2.507,3.131l-2.7,7.367a3.548,3.548,0,0,1-3.97.756,3.167,3.167,0,0,1-2.14-2.37,7.828,7.828,0,0,1,.56-4.355q2.145-5.849,5.744-4.529h0Zm18.684,2.65-4.992-1.832-6.833,18.639,5,1.831Zm-3.432-4.621a3.4,3.4,0,0,0,4.052,1.484,2.811,2.811,0,0,0,1.36-3.7,3.441,3.441,0,0,0-4.072-1.494A2.813,2.813,0,0,0,997.338,550.963Zm11.052,7.412-5.2-1.907-0.55,20.943,4.75,1.743,13.12-16.334-5.2-1.907-8.06,11.289Zm10.26,16.794-1.77,4.806,17.32-.8,1.48-4.049-12.7-11.787-1.75,4.789,8.72,7.165Z" transform="translate(-953.031 -542.594)" fill="#f91284"/>
</svg>