<svg xmlns="http://www.w3.org/2000/svg" width="42.59" height="50.59" viewBox="0 0 42.59 50.59">
  <defs>
    <style>
      .cls-1 {
        fill: #fff;
        fill-rule: evenodd;
      }
    </style>
  </defs>
  <path id="_" data-name="{ }" class="cls-1" d="M1788.53,2581.62q-3.885-.09-5.73-5.5l-1.56-4.93q-1.68-5.28-6.52-6.1,3.495-3.435,1.83-8.69l-1.55-4.88a9.953,9.953,0,0,1-.46-4.78,5.1,5.1,0,0,1,1.95-3.11l-2.49-3.33a12.362,12.362,0,0,0-5.06,5.82,11.465,11.465,0,0,0,.11,7.62l1.56,4.93q1.38,4.65-2.67,5.94l1.53,4.81c2.76-.87,4.65.32,5.69,3.6l1.47,4.62q2.67,8.475,11.79,8.16Zm15.94-.9q7.455-4.89,5.06-13.09l-1.6-5.05c-1.02-3.24-.16-5.3,2.6-6.17l-1.52-4.82c-2.7.86-4.57-.25-5.61-3.31l-1.58-5a11.468,11.468,0,0,0-4.31-6.25,12.287,12.287,0,0,0-7.46-1.82l-0.12,4.16q3.96,0.21,5.77,5.59l1.54,4.86q1.695,5.37,6.6,6.07-3.6,3.405-1.94,8.65l1.56,4.93q1.65,5.52-1.49,7.89Z" transform="translate(-1767.94 -2535.22)"/>
</svg>
