<svg xmlns="http://www.w3.org/2000/svg" width="34.75" height="41.34" viewBox="0 0 34.75 41.34">
  <defs>
    <style>
      .cls-1 {
        fill: #fff;
        fill-rule: evenodd;
      }
    </style>
  </defs>
  <path id="_" data-name="#" class="cls-1" d="M257.367,2573.17l4.907,1.4,5.064-10.45,6.811,1.94,1.314-4.61-6.006-1.71,3.511-7.23,6.7,1.91,1.329-4.67-5.872-1.67,5.136-10.6-4.907-1.4-5.137,10.6-5.2-1.48,5.136-10.6-4.88-1.39-5.137,10.6-7.052-2.01-1.33,4.66,6.221,1.77-3.511,7.24-6.891-1.97-1.315,4.62,6.088,1.73-5.064,10.45,4.907,1.39,5.064-10.44,5.175,1.47Zm5.491-23.54,5.2,1.48-3.511,7.23-5.175-1.47Z" transform="translate(-246.25 -2533.22)"/>
</svg>
