<svg xmlns="http://www.w3.org/2000/svg" width="82.66" height="37.38" viewBox="0 0 82.66 37.38">
  <defs>
    <style>
      .cls-1 {
        fill: #fff;
        fill-rule: evenodd;
      }
    </style>
  </defs>
  <path id="_div_" data-name="&lt;div&gt;" class="cls-1" d="M1441.91,2585.33l1.76-4.82-17.13.85-1.49,4.06,12.52,11.73,1.77-4.83-8.55-7.06Zm0.94,13.88a6.709,6.709,0,0,0,4.33,4.52,6.212,6.212,0,0,0,5.64-.57l-0.49,2.07,4.5,1.65,9.7-26.46-5-1.83-3.48,9.51a6.082,6.082,0,0,0-3.75-3.68,6.772,6.772,0,0,0-6.3.62,11.925,11.925,0,0,0-4.5,6.23C1442.37,2594.35,1442.15,2596.99,1442.85,2599.21Zm11.24-10.28a3.5,3.5,0,0,1,2.5,3.13l-2.7,7.37a3.552,3.552,0,0,1-3.97.76,3.187,3.187,0,0,1-2.14-2.37,7.833,7.833,0,0,1,.56-4.36q2.145-5.85,5.75-4.53h0Zm18.68,2.65-4.99-1.83-6.83,18.64,4.99,1.83Zm-3.43-4.62a3.4,3.4,0,0,0,4.05,1.49,2.6,2.6,0,0,0,1.44-1.58,2.561,2.561,0,0,0-.08-2.12,3,3,0,0,0-1.77-1.47,2.961,2.961,0,0,0-2.3-.03,2.649,2.649,0,0,0-1.43,1.57A2.608,2.608,0,0,0,1469.34,2586.96Zm11.05,7.41-5.2-1.9-0.55,20.94,4.75,1.74,13.12-16.33-5.2-1.91-8.06,11.29Zm10.26,16.8-1.77,4.81,17.32-.81,1.48-4.05-12.7-11.79-1.75,4.79,8.72,7.17Z" transform="translate(-1425.03 -2578.59)"/>
</svg>
